# xmcd
#
# Track frame offsets: 
#        150
#        8442
#        17082
#        20832
#        24719
#        26421
#        47313
#        48087
#        58763
#        76451
#        82022
#        84563
#        113462
#        138796
#        170985
#        205080
#        218769
#        235510
#        248265
#        265480
#        273594
#        289785
#        298390
#        304866
#
# Disc length: 4260 seconds
#
# Revision: 0
# Processed by: cddbd v1.5.2PL0 Copyright (c) Steve Scherf et al.
# Submitted via: ExactAudioCopy v0.95b3
#
DISCID=4410a218
DTITLE=Led Zeppelin  - Studio Sessions Ultimate [Disc 2]
DYEAR=1900
DGENRE=
TTITLE0=Jennings Farm Blues
TTITLE1=Jennings Farm Blues
TTITLE2=Jennings Farm Blues
TTITLE3=Jennings Farm Blues
TTITLE4=Jennings Farm Blues
TTITLE5=Jennings Farm Blues
TTITLE6=Jennings Farm Blues
TTITLE7=Jennings Farm Blues
TTITLE8=Jennings Farm Blues
TTITLE9=Jennings Farm Blues
TTITLE10=Jennings Farm Blues
TTITLE11=Jennings Farm Blues (Final Take)
TTITLE12=That's The Way (Alternate Mix)
TTITLE13=Feel So Bad
TTITLE14=Since I've Been Loving You (Alternate Mix)
TTITLE15=Since I've Been Loving You (Vocal Only)
TTITLE16=Friends (Rehearsal)
TTITLE17=Immigrant Song (Rehearsal)
TTITLE18=Out On The Tiles (Rehearsal)
TTITLE19=Bron-Yr-Aur (Rehearsal)
TTITLE20=Poor Tom (Rehearsal)
TTITLE21=Hey Hey What Can I Do (Rehearsal)
TTITLE22=Friends (Rehearsal)
TTITLE23=Poor Tom (Outtake)
EXTD=
EXTT0=
EXTT1=
EXTT2=
EXTT3=
EXTT4=
EXTT5=
EXTT6=
EXTT7=
EXTT8=
EXTT9=
EXTT10=
EXTT11=
EXTT12=
EXTT13=
EXTT14=
EXTT15=
EXTT16=
EXTT17=
EXTT18=
EXTT19=
EXTT20=
EXTT21=
EXTT22=
EXTT23=
PLAYORDER=
